<svg width="512" height="512" viewBox="0 0 512 512" fill="none" xmlns="http://www.w3.org/2000/svg">
<g clip-path="url(#clip0_109_14946)">
<rect width="512" height="512" fill="#F0EEE3"/>
<path d="M352 240C352 265.461 341.886 289.879 323.882 307.882C305.879 325.886 281.461 336 256 336" stroke="#431853" stroke-width="32" stroke-linecap="round" stroke-linejoin="round"/>
<path d="M127.999 399.11C164.165 431.547 211.316 449.012 259.885 447.961C362.843 445.927 446.548 361.702 447.981 258.734C448.343 233.293 443.645 208.033 434.16 184.424C424.674 160.814 410.591 139.325 392.728 121.206C374.865 103.087 353.579 88.6985 330.106 78.8779C306.634 69.0573 281.444 64 256 64H240V128L32 256L59.5742 294.232C64.8326 301.512 72.0262 307.173 80.3388 310.572C88.6514 313.972 97.7503 314.973 106.603 313.463C141.538 307.549 202.725 304.035 256 336L256 336L185.532 434.656" fill="#B603F6"/>
<path d="M127.999 399.11C164.165 431.547 211.316 449.012 259.885 447.961C362.843 445.927 446.548 361.702 447.981 258.734C448.343 233.293 443.645 208.033 434.16 184.424C424.674 160.814 410.591 139.325 392.728 121.206C374.865 103.087 353.579 88.6985 330.106 78.8779C306.634 69.0573 281.444 64 256 64H240V128L32 256L59.5742 294.232C64.8326 301.512 72.0262 307.173 80.3388 310.572C88.6514 313.972 97.7503 314.973 106.603 313.463C141.538 307.549 202.725 304.035 256 336L256 336L185.532 434.656" stroke="#431853" stroke-width="32" stroke-linecap="round" stroke-linejoin="round"/>
<path d="M248 224C261.255 224 272 213.255 272 200C272 186.745 261.255 176 248 176C234.745 176 224 186.745 224 200C224 213.255 234.745 224 248 224Z" fill="#431853"/>
</g>
<defs>
<clipPath id="clip0_109_14946">
<rect width="512" height="512" fill="white"/>
</clipPath>
</defs>
</svg>
