<svg width="50" height="50" viewBox="0 0 50 50" fill="none" xmlns="http://www.w3.org/2000/svg">
<circle opacity="0.25" cx="25" cy="25" r="25" fill="#FF7532"/>
<circle opacity="0.15" cx="25" cy="25" r="19" fill="#FF7532"/>
<path d="M28.75 22.75H21.25C19.5931 22.75 18.25 24.0931 18.25 25.75V26.5C18.25 28.1569 19.5931 29.5 21.25 29.5H28.75C30.4069 29.5 31.75 28.1569 31.75 26.5V25.75C31.75 24.0931 30.4069 22.75 28.75 22.75Z" stroke="#FF7532" stroke-width="1.5" stroke-linecap="round" stroke-linejoin="round"/>
<path d="M21.625 27.25C22.2463 27.25 22.75 26.7463 22.75 26.125C22.75 25.5037 22.2463 25 21.625 25C21.0037 25 20.5 25.5037 20.5 26.125C20.5 26.7463 21.0037 27.25 21.625 27.25Z" fill="#FF7532"/>
<path d="M28.375 27.25C28.9963 27.25 29.5 26.7463 29.5 26.125C29.5 25.5037 28.9963 25 28.375 25C27.7537 25 27.25 25.5037 27.25 26.125C27.25 26.7463 27.7537 27.25 28.375 27.25Z" fill="#FF7532"/>
<path d="M15.25 19C15.25 18.4033 15.4871 17.831 15.909 17.409C16.331 16.9871 16.9033 16.75 17.5 16.75C18.0967 16.75 18.669 16.9871 19.091 17.409C19.5129 17.831 19.75 18.4033 19.75 19H30.25C30.25 18.4033 30.4871 17.831 30.909 17.409C31.331 16.9871 31.9033 16.75 32.5 16.75C33.0967 16.75 33.669 16.9871 34.091 17.409C34.5129 17.831 34.75 18.4033 34.75 19V26.5C34.75 28.0913 34.1179 29.6174 32.9926 30.7426C31.8674 31.8679 30.3413 32.5 28.75 32.5H21.25C19.6587 32.5 18.1326 31.8679 17.0074 30.7426C15.8821 29.6174 15.25 28.0913 15.25 26.5V19Z" stroke="#FF7532" stroke-width="1.5" stroke-linecap="round" stroke-linejoin="round"/>
<path d="M24 14.9232L24.0163 14.9837L24.0768 15L24.0163 15.0163L24 15.0768L23.9837 15.0163L23.9232 15L23.9837 14.9837L24 14.9232Z" stroke="#FF7532"/>
<path d="M27.5 15.9232L27.5475 16.0997L27.6224 16.3776L27.9003 16.4525L28.0768 16.5L27.9003 16.5475L27.6224 16.6224L27.5475 16.9003L27.5 17.0768L27.4525 16.9003L27.3776 16.6224L27.0997 16.5475L26.9232 16.5L27.0997 16.4525L27.3776 16.3776L27.4525 16.0997L27.5 15.9232Z" stroke="#FF7532"/>
<mask id="path-9-inside-1_279_14424" fill="white">
<path d="M22 16L22.2121 16.7879L23 17L22.2121 17.2121L22 18L21.7879 17.2121L21 17L21.7879 16.7879L22 16Z"/>
</mask>
<path d="M22 16L22.9656 15.74L22 12.1537L21.0344 15.74L22 16ZM22.2121 16.7879L21.2465 17.0479L21.3962 17.6038L21.9521 17.7535L22.2121 16.7879ZM23 17L23.26 17.9656L26.8463 17L23.26 16.0344L23 17ZM22.2121 17.2121L21.9521 16.2465L21.3962 16.3962L21.2465 16.9521L22.2121 17.2121ZM22 18L21.0344 18.26L22 21.8463L22.9656 18.26L22 18ZM21.7879 17.2121L22.7535 16.9521L22.6038 16.3962L22.0479 16.2465L21.7879 17.2121ZM21 17L20.74 16.0344L17.1537 17L20.74 17.9656L21 17ZM21.7879 16.7879L22.0479 17.7535L22.6038 17.6038L22.7535 17.0479L21.7879 16.7879ZM21.0344 16.26L21.2465 17.0479L23.1777 16.5279L22.9656 15.74L21.0344 16.26ZM21.9521 17.7535L22.74 17.9656L23.26 16.0344L22.4721 15.8223L21.9521 17.7535ZM22.74 16.0344L21.9521 16.2465L22.4721 18.1777L23.26 17.9656L22.74 16.0344ZM21.2465 16.9521L21.0344 17.74L22.9656 18.26L23.1777 17.4721L21.2465 16.9521ZM22.9656 17.74L22.7535 16.9521L20.8223 17.4721L21.0344 18.26L22.9656 17.74ZM22.0479 16.2465L21.26 16.0344L20.74 17.9656L21.5279 18.1777L22.0479 16.2465ZM21.26 17.9656L22.0479 17.7535L21.5279 15.8223L20.74 16.0344L21.26 17.9656ZM22.7535 17.0479L22.9656 16.26L21.0344 15.74L20.8223 16.5279L22.7535 17.0479Z" fill="#FF7532" mask="url(#path-9-inside-1_279_14424)"/>
</svg>
