<svg width="50" height="50" viewBox="0 0 50 50" fill="none" xmlns="http://www.w3.org/2000/svg">
<circle opacity="0.25" cx="25" cy="25" r="25" fill="#B603EC"/>
<circle opacity="0.15" cx="25" cy="25" r="19" fill="#B603EC"/>
<path d="M33.25 17.5H16.75C16.3358 17.5 16 17.8358 16 18.25V31.75C16 32.1642 16.3358 32.5 16.75 32.5H33.25C33.6642 32.5 34 32.1642 34 31.75V18.25C34 17.8358 33.6642 17.5 33.25 17.5Z" stroke="#B603EC" strokeWidth="1.5" strokeLinecap="round" strokeLinejoin="round"/>
<path d="M16 28.7499L20.7197 24.0302C20.7893 23.9606 20.872 23.9053 20.963 23.8676C21.054 23.8299 21.1515 23.8105 21.25 23.8105C21.3485 23.8105 21.446 23.8299 21.537 23.8676C21.628 23.9053 21.7107 23.9606 21.7803 24.0302L25.9697 28.2196C26.0393 28.2892 26.122 28.3444 26.213 28.3821C26.304 28.4198 26.4015 28.4392 26.5 28.4392C26.5985 28.4392 26.696 28.4198 26.787 28.3821C26.878 28.3444 26.9607 28.2892 27.0303 28.2196L28.9697 26.2802C29.0393 26.2106 29.122 26.1553 29.213 26.1176C29.304 26.0799 29.4015 26.0605 29.5 26.0605C29.5985 26.0605 29.696 26.0799 29.787 26.1176C29.878 26.1553 29.9607 26.2106 30.0303 26.2802L34 30.2499" stroke="#B603EC" strokeWidth="1.5" strokeLinecap="round" strokeLinejoin="round"/>
<path d="M27.625 23.5C28.2463 23.5 28.75 22.9963 28.75 22.375C28.75 21.7537 28.2463 21.25 27.625 21.25C27.0037 21.25 26.5 21.7537 26.5 22.375C26.5 22.9963 27.0037 23.5 27.625 23.5Z" fill="#B603EC"/>
</svg>
