<svg width="50" height="50" viewBox="0 0 50 50" fill="none" xmlns="http://www.w3.org/2000/svg">
<circle opacity="0.25" cx="25" cy="25" r="25" fill="#F3CD2D"/>
<circle opacity="0.15" cx="25" cy="25" r="19" fill="#F3CD2D"/>
<path d="M25 34C29.9706 34 34 29.9706 34 25C34 20.0294 29.9706 16 25 16C20.0294 16 16 20.0294 16 25C16 29.9706 20.0294 34 25 34Z" stroke="#F3CD2D" stroke-width="1.5" stroke-linecap="round" stroke-linejoin="round"/>
<path d="M28.8979 27.25C28.5026 27.9338 27.9343 28.5016 27.2501 28.8964C26.5659 29.2911 25.7899 29.4989 25 29.4989C24.2101 29.4989 23.4341 29.2911 22.7499 28.8964C22.0657 28.5017 21.4974 27.9339 21.1021 27.2501" stroke="#F3CD2D" stroke-width="1.5" stroke-linecap="round" stroke-linejoin="round"/>
<path d="M21.625 24.25C22.2463 24.25 22.75 23.7463 22.75 23.125C22.75 22.5037 22.2463 22 21.625 22C21.0037 22 20.5 22.5037 20.5 23.125C20.5 23.7463 21.0037 24.25 21.625 24.25Z" fill="#F3CD2D"/>
<path d="M28.375 24.25C28.9963 24.25 29.5 23.7463 29.5 23.125C29.5 22.5037 28.9963 22 28.375 22C27.7537 22 27.25 22.5037 27.25 23.125C27.25 23.7463 27.7537 24.25 28.375 24.25Z" fill="#F3CD2D"/>
</svg>
